# xmcd CD database file
#
# Track frame offsets:
#	150
#	10381
#	28211
#	41335
#	53557
#	65715
#	78675
#	91793
#	104059
#	116616
#	131795
#	146664
#	160336
#	174890
#	190346
#	203922
#	220171
#	237958
#	266921
#
# Disc length: 4112 seconds
#
# Revision: 2
# Processed by: cddbd v1.5.1PL2 Copyright (c) Steve Scherf et al.
# Submitted via: CD2WAV32(JP) R3.22
#
DISCID=19100e13
DTITLE=Acacia Soft - SuperSweep - SISTER CONTRAST! - SISTER CONTRAST SOUND TRACKS
DYEAR=2004
DGENRE=Game
TTITLE0=YURIA - POSSIBILITY (TV-SIZED)
TTITLE1=WAITING FOR SPRING
TTITLE2=HELLO, MY SISTER!
TTITLE3=RESONANCE
TTITLE4=HIGH CONTRAST
TTITLE5=POP CULTURE
TTITLE6=NO PROBLEM
TTITLE7=SKIRT and SNEAKER
TTITLE8=ICHIGO ALLERGY
TTITLE9=SOMETIME...
TTITLE10=PARADOX
TTITLE11=HER DESIRE
TTITLE12=YOUTH
TTITLE13=PLOTTED
TTITLE14=DEUS EX MACHINA
TTITLE15=CHERRY BLOSSOM
TTITLE16=YURIA - POSSIBILITY (RE-MIXED)
TTITLE17=POSSIBILITY (RE-MIXED SING-ALONG)
TTITLE18=DATA TRACK
EXTD=
EXTT0=曲:細江慎治 詞:木之本みけ
EXTT1=
EXTT2=
EXTT3=
EXTT4=
EXTT5=
EXTT6=
EXTT7=
EXTT8=
EXTT9=
EXTT10=
EXTT11=
EXTT12=
EXTT13=
EXTT14=
EXTT15=
EXTT16=曲:細江慎治 詞:木之本みけ
EXTT17=曲:細江慎治
EXTT18=
PLAYORDER=
